<svg xmlns="http://www.w3.org/2000/svg" viewBox="0 0 400 480" fill="none">
  <!-- Watch face outer circle -->
  <circle cx="200" cy="175" r="110" stroke="white" stroke-width="3.5" fill="none"/>

  <!-- Tick marks around the circle -->
  <g stroke="white" stroke-width="2.5">
    <!-- Major ticks (every 30 deg) -->
    <line x1="200" y1="68" x2="200" y2="82" transform="rotate(0 200 175)"/>
    <line x1="200" y1="68" x2="200" y2="82" transform="rotate(30 200 175)"/>
    <line x1="200" y1="68" x2="200" y2="82" transform="rotate(60 200 175)"/>
    <line x1="200" y1="68" x2="200" y2="82" transform="rotate(90 200 175)"/>
    <line x1="200" y1="68" x2="200" y2="82" transform="rotate(120 200 175)"/>
    <line x1="200" y1="68" x2="200" y2="82" transform="rotate(150 200 175)"/>
    <line x1="200" y1="68" x2="200" y2="82" transform="rotate(180 200 175)"/>
    <line x1="200" y1="68" x2="200" y2="82" transform="rotate(210 200 175)"/>
    <line x1="200" y1="68" x2="200" y2="82" transform="rotate(240 200 175)"/>
    <line x1="200" y1="68" x2="200" y2="82" transform="rotate(270 200 175)"/>
    <line x1="200" y1="68" x2="200" y2="82" transform="rotate(300 200 175)"/>
    <line x1="200" y1="68" x2="200" y2="82" transform="rotate(330 200 175)"/>
  </g>
  <g stroke="white" stroke-width="1.5">
    <!-- Minor ticks (every 6 deg) -->
    <line x1="200" y1="68" x2="200" y2="76" transform="rotate(6 200 175)"/>
    <line x1="200" y1="68" x2="200" y2="76" transform="rotate(12 200 175)"/>
    <line x1="200" y1="68" x2="200" y2="76" transform="rotate(18 200 175)"/>
    <line x1="200" y1="68" x2="200" y2="76" transform="rotate(24 200 175)"/>
    <line x1="200" y1="68" x2="200" y2="76" transform="rotate(36 200 175)"/>
    <line x1="200" y1="68" x2="200" y2="76" transform="rotate(42 200 175)"/>
    <line x1="200" y1="68" x2="200" y2="76" transform="rotate(48 200 175)"/>
    <line x1="200" y1="68" x2="200" y2="76" transform="rotate(54 200 175)"/>
    <line x1="200" y1="68" x2="200" y2="76" transform="rotate(66 200 175)"/>
    <line x1="200" y1="68" x2="200" y2="76" transform="rotate(72 200 175)"/>
    <line x1="200" y1="68" x2="200" y2="76" transform="rotate(78 200 175)"/>
    <line x1="200" y1="68" x2="200" y2="76" transform="rotate(84 200 175)"/>
    <line x1="200" y1="68" x2="200" y2="76" transform="rotate(96 200 175)"/>
    <line x1="200" y1="68" x2="200" y2="76" transform="rotate(102 200 175)"/>
    <line x1="200" y1="68" x2="200" y2="76" transform="rotate(108 200 175)"/>
    <line x1="200" y1="68" x2="200" y2="76" transform="rotate(114 200 175)"/>
    <line x1="200" y1="68" x2="200" y2="76" transform="rotate(126 200 175)"/>
    <line x1="200" y1="68" x2="200" y2="76" transform="rotate(132 200 175)"/>
    <line x1="200" y1="68" x2="200" y2="76" transform="rotate(138 200 175)"/>
    <line x1="200" y1="68" x2="200" y2="76" transform="rotate(144 200 175)"/>
    <line x1="200" y1="68" x2="200" y2="76" transform="rotate(156 200 175)"/>
    <line x1="200" y1="68" x2="200" y2="76" transform="rotate(162 200 175)"/>
    <line x1="200" y1="68" x2="200" y2="76" transform="rotate(168 200 175)"/>
    <line x1="200" y1="68" x2="200" y2="76" transform="rotate(174 200 175)"/>
    <line x1="200" y1="68" x2="200" y2="76" transform="rotate(186 200 175)"/>
    <line x1="200" y1="68" x2="200" y2="76" transform="rotate(192 200 175)"/>
    <line x1="200" y1="68" x2="200" y2="76" transform="rotate(198 200 175)"/>
    <line x1="200" y1="68" x2="200" y2="76" transform="rotate(204 200 175)"/>
    <line x1="200" y1="68" x2="200" y2="76" transform="rotate(216 200 175)"/>
    <line x1="200" y1="68" x2="200" y2="76" transform="rotate(222 200 175)"/>
    <line x1="200" y1="68" x2="200" y2="76" transform="rotate(228 200 175)"/>
    <line x1="200" y1="68" x2="200" y2="76" transform="rotate(234 200 175)"/>
    <line x1="200" y1="68" x2="200" y2="76" transform="rotate(246 200 175)"/>
    <line x1="200" y1="68" x2="200" y2="76" transform="rotate(252 200 175)"/>
    <line x1="200" y1="68" x2="200" y2="76" transform="rotate(258 200 175)"/>
    <line x1="200" y1="68" x2="200" y2="76" transform="rotate(264 200 175)"/>
    <line x1="200" y1="68" x2="200" y2="76" transform="rotate(276 200 175)"/>
    <line x1="200" y1="68" x2="200" y2="76" transform="rotate(282 200 175)"/>
    <line x1="200" y1="68" x2="200" y2="76" transform="rotate(288 200 175)"/>
    <line x1="200" y1="68" x2="200" y2="76" transform="rotate(294 200 175)"/>
    <line x1="200" y1="68" x2="200" y2="76" transform="rotate(306 200 175)"/>
    <line x1="200" y1="68" x2="200" y2="76" transform="rotate(312 200 175)"/>
    <line x1="200" y1="68" x2="200" y2="76" transform="rotate(318 200 175)"/>
    <line x1="200" y1="68" x2="200" y2="76" transform="rotate(324 200 175)"/>
    <line x1="200" y1="68" x2="200" y2="76" transform="rotate(336 200 175)"/>
    <line x1="200" y1="68" x2="200" y2="76" transform="rotate(342 200 175)"/>
    <line x1="200" y1="68" x2="200" y2="76" transform="rotate(348 200 175)"/>
    <line x1="200" y1="68" x2="200" y2="76" transform="rotate(354 200 175)"/>
  </g>

  <!-- Sub-dial left -->
  <circle cx="163" cy="185" r="22" stroke="white" stroke-width="2" fill="none"/>
  <line x1="163" y1="185" x2="163" y2="167" stroke="white" stroke-width="2.5" stroke-linecap="round"/>

  <!-- Sub-dial right -->
  <circle cx="237" cy="185" r="22" stroke="white" stroke-width="2" fill="none"/>
  <line x1="237" y1="185" x2="252" y2="175" stroke="white" stroke-width="2.5" stroke-linecap="round"/>

  <!-- Sub-dial bottom -->
  <circle cx="200" cy="218" r="18" stroke="white" stroke-width="2" fill="none"/>
  <line x1="200" y1="218" x2="193" y2="204" stroke="white" stroke-width="2" stroke-linecap="round"/>

  <!-- Main hands -->
  <!-- Minute hand (long, thin) -->
  <line x1="200" y1="175" x2="200" y2="105" stroke="white" stroke-width="3" stroke-linecap="round"/>
  <!-- Hour hand (shorter, wider) -->
  <line x1="200" y1="175" x2="233" y2="148" stroke="white" stroke-width="4.5" stroke-linecap="round"/>

  <!-- Center dot -->
  <circle cx="200" cy="175" r="4" fill="white"/>

  <!-- Text: KODRA_WATCHES -->
  <line x1="52" y1="318" x2="348" y2="318" stroke="white" stroke-width="2"/>
  <text x="200" y="312" text-anchor="middle" font-family="Arial Black, Arial, sans-serif" font-weight="900" font-size="42" fill="white" letter-spacing="4">KODRA_WATCHES</text>
  <line x1="52" y1="322" x2="348" y2="322" stroke="white" stroke-width="1"/>

  <!-- Text: Shitje Online -->
  <text x="200" y="360" text-anchor="middle" font-family="Arial, sans-serif" font-weight="300" font-size="18" fill="white" letter-spacing="10">Shitje Online</text>
</svg>
